<svg width="26" height="28" viewBox="0 0 26 28" fill="none" xmlns="http://www.w3.org/2000/svg">
	<style>
+     @media (prefers-color-scheme: dark) {
+     	path { fill: #fff }
+     }
+   </style>
<path fill-rule="evenodd" clip-rule="evenodd" d="M11.6652 27.4454C12.6873 27.4454 13.5237 26.6087 13.5237 25.5858V18.2135C13.5237 17.1906 12.6873 16.3535 11.6652 16.3535C10.643 16.3535 9.80664 17.1906 9.80664 18.2135V25.5858C9.80664 26.6087 10.643 27.4454 11.6652 27.4454Z" fill="#171C8F"/>
<path fill-rule="evenodd" clip-rule="evenodd" d="M4.55887 24.1299C5.21583 24.9134 6.39393 25.0166 7.17681 24.3591L12.8201 19.6203C13.603 18.9628 13.7061 17.7838 13.0492 17.0003V17C12.3922 16.2165 11.2141 16.1134 10.4309 16.7708L4.78788 21.5097C4.00468 22.1671 3.90157 23.3461 4.55887 24.1299Z" fill="#171C8F"/>
<path fill-rule="evenodd" clip-rule="evenodd" d="M17.4209 0.285645H17.4205C16.3987 0.285645 15.5623 1.12269 15.5623 2.14559V9.51792C15.5623 10.5408 16.3987 11.3775 17.4205 11.3775H17.4209C18.443 11.3775 19.2791 10.5408 19.2791 9.51792V2.14559C19.2791 1.12269 18.443 0.285645 17.4209 0.285645Z" fill="#171C8F"/>
<path fill-rule="evenodd" clip-rule="evenodd" d="M24.5272 3.60138C23.8702 2.81758 22.6921 2.7144 21.9089 3.37186L16.2659 8.1107C15.4827 8.76849 15.3799 9.9475 16.0369 10.731C16.6938 11.5148 17.8719 11.6176 18.6552 10.9602L24.2982 6.22165C25.0814 5.56385 25.1841 4.38485 24.5272 3.60138Z" fill="#171C8F"/>
<path fill-rule="evenodd" clip-rule="evenodd" d="M11.6652 0.285645C12.6873 0.285645 13.5237 1.12269 13.5237 2.14559V9.51792C13.5237 10.5408 12.6873 11.3775 11.6652 11.3775C10.643 11.3775 9.80664 10.5408 9.80664 9.51792V2.14559C9.80664 1.12269 10.643 0.285645 11.6652 0.285645Z" fill="#171C8F"/>
<path fill-rule="evenodd" clip-rule="evenodd" d="M4.55887 3.60138C5.21583 2.81758 6.39393 2.7144 7.17681 3.37186L12.8201 8.1107C13.603 8.76849 13.7061 9.9475 13.0492 10.731C12.3922 11.5148 11.2141 11.6176 10.4309 10.9602L4.78788 6.22165C4.00468 5.56385 3.90157 4.38485 4.55887 3.60138Z" fill="#171C8F"/>
<path fill-rule="evenodd" clip-rule="evenodd" d="M1.17986 18.1228H1.18019C1.63755 19.0376 2.75948 19.4113 3.67354 18.9536L10.2614 15.6537C11.1751 15.1957 11.5485 14.0729 11.0912 13.1581C10.6335 12.2434 9.51153 11.8696 8.59747 12.3274L2.00998 15.6272C1.09592 16.085 0.722493 17.2081 1.17986 18.1228Z" fill="#171C8F"/>
<path fill-rule="evenodd" clip-rule="evenodd" d="M0.961742 10.2789V10.2792C0.5556 11.2178 0.990822 12.3181 1.92868 12.7249L8.689 15.6537C9.62686 16.0602 10.7266 15.6246 11.1328 14.686C11.5389 13.7471 11.1037 12.6465 10.1658 12.2404L3.40553 9.31124C2.46734 8.90479 1.36788 9.34034 0.961742 10.2789Z" fill="#171C8F"/>
<path fill-rule="evenodd" clip-rule="evenodd" d="M20.3506 27.7141C20.6811 27.7141 21.0476 27.6784 21.4497 27.6063C21.723 27.5633 22.0819 27.4482 22.5274 27.261C23.4329 26.8731 24.144 26.2976 24.6615 25.5357C25.1787 24.7734 25.4371 23.9324 25.4371 23.012C25.4371 22.0628 25.1787 21.2142 24.6615 20.4668C24.144 19.7045 23.4329 19.1294 22.5274 18.7411C22.2115 18.5972 21.9742 18.5036 21.8162 18.4606L21.1051 18.245L20.3721 17.9861C20.1854 17.9285 19.9696 17.8349 19.7254 17.7056C19.5099 17.5618 19.3734 17.3822 19.3159 17.1662C19.2872 17.0511 19.273 16.9721 19.273 16.9291C19.273 16.8286 19.3017 16.7062 19.3592 16.5623L19.4022 16.476C19.4597 16.3467 19.5601 16.2462 19.7039 16.1741L20.1137 16.0233H20.4583L20.6523 16.0663C20.7673 16.0808 20.9398 16.1526 21.1695 16.2819C21.299 16.3828 21.378 16.4833 21.4068 16.5842C21.5072 16.814 21.651 16.9291 21.8377 16.9291H24.2303C24.4315 16.9291 24.5931 16.8788 24.7151 16.778C24.8373 16.6774 24.8985 16.5408 24.8985 16.3682C24.8985 16.2101 24.8697 16.0448 24.8122 15.8721C24.7547 15.6995 24.7187 15.5847 24.7045 15.5269C24.5462 15.0956 24.3092 14.6931 23.9933 14.3191C23.6771 13.9742 23.3106 13.6649 22.8939 13.3914C22.4484 13.1183 21.9742 12.9314 21.4712 12.8309C20.954 12.7012 20.4296 12.651 19.8979 12.6797C19.3662 12.7227 18.885 12.8381 18.4537 13.025C18.0083 13.2119 17.5988 13.4708 17.2254 13.8015C16.8374 14.1465 16.5285 14.5347 16.2985 14.9663C15.968 15.5414 15.8028 16.1814 15.8028 16.8861C15.8028 17.274 15.8603 17.6626 15.9753 18.0509C16.1045 18.5397 16.3345 19.007 16.6649 19.4528C16.9954 19.8986 17.4048 20.2581 17.8936 20.5313C18.267 20.7469 18.6335 20.9195 18.9927 21.0488C19.2369 21.1497 19.5889 21.2717 20.0489 21.4156L20.6094 21.5882L21.0832 21.7609C21.3133 21.8902 21.4643 21.991 21.536 22.0628L21.8162 22.4077L21.924 22.753L21.9458 23.012L21.924 23.2491L21.8162 23.5729L21.536 23.9178C21.421 24.0617 21.2703 24.1622 21.0832 24.2197C20.8248 24.3348 20.5806 24.3924 20.3506 24.3924C20.0056 24.3924 19.7039 24.3061 19.4455 24.1334C19.3017 24.0617 19.1434 23.9105 18.9713 23.6807C18.8562 23.508 18.7845 23.3642 18.7555 23.2491C18.6837 22.9329 18.5112 22.7745 18.2383 22.7745H16.4924C16.162 22.7745 15.889 22.8608 15.6735 23.0335C15.4581 23.2061 15.35 23.4359 15.35 23.7237C15.35 23.7812 15.3646 23.8675 15.3933 23.9826C15.465 24.3563 15.623 24.7446 15.8675 25.1474C16.2842 25.8952 16.8517 26.4918 17.5701 26.9376C17.9868 27.2107 18.4395 27.4121 18.928 27.5415C19.4167 27.6565 19.8909 27.7141 20.3506 27.7141Z" fill="#171C8F"/>
</svg>
